<?xml version="1.0" encoding="UTF-8"?>
<svg xmlns="http://www.w3.org/2000/svg" style="display: none;">
    <symbol id="copy" viewBox="0 0 512 512">
        <path
            d="M384 96L384 0h-112c-26.51 0-48 21.49-48 48v288c0 26.51 21.49 48 48 48H464c26.51 0 48-21.49 48-48V128h-95.1C398.4 128 384 113.6 384 96zM416 0v96h96L416 0zM192 352V128h-144c-26.51 0-48 21.49-48 48v288c0 26.51 21.49 48 48 48h192c26.51 0 48-21.49 48-48L288 416h-32C220.7 416 192 387.3 192 352z"></path>
    </symbol>
    <symbol id="envelope-open-text" viewBox="0 0 512 512">
        <path d="M256 417.1c-16.38 0-32.88-4.1-46.88-15.12L0 250.9v213.1C0 490.5 21.5 512 48 512h416c26.5 0 48-21.5 48-47.1V250.9l-209.1 151.1C288.9 412 272.4 417.1 256 417.1zM493.6 163C484.8 156 476.4 149.5 464 140.1v-44.12c0-26.5-21.5-48-48-48l-77.5 .0016c-3.125-2.25-5.875-4.25-9.125-6.5C312.6 29.13 279.3-.3732 256 .0018C232.8-.3732 199.4 29.13 182.6 41.5c-3.25 2.25-6 4.25-9.125 6.5L96 48c-26.5 0-48 21.5-48 48v44.12C35.63 149.5 27.25 156 18.38 163C6.75 172 0 186 0 200.8v10.62l96 69.37V96h320v184.7l96-69.37V200.8C512 186 505.3 172 493.6 163zM176 255.1h160c8.836 0 16-7.164 16-15.1c0-8.838-7.164-16-16-16h-160c-8.836 0-16 7.162-16 16C160 248.8 167.2 255.1 176 255.1zM176 191.1h160c8.836 0 16-7.164 16-16c0-8.838-7.164-15.1-16-15.1h-160c-8.836 0-16 7.162-16 15.1C160 184.8 167.2 191.1 176 191.1z"></path>
    </symbol>
    <symbol id="paper-plane" viewBox="0 0 512 512">
        <path
            d="M511.6 36.86l-64 415.1c-1.5 9.734-7.375 18.22-15.97 23.05c-4.844 2.719-10.27 4.097-15.68 4.097c-4.188 0-8.319-.8154-12.29-2.472l-122.6-51.1l-50.86 76.29C226.3 508.5 219.8 512 212.8 512C201.3 512 192 502.7 192 491.2v-96.18c0-7.115 2.372-14.03 6.742-19.64L416 96l-293.7 264.3L19.69 317.5C8.438 312.8 .8125 302.2 .0625 289.1s5.469-23.72 16.06-29.77l448-255.1c10.69-6.109 23.88-5.547 34 1.406S513.5 24.72 511.6 36.86z">
        </path>
    </symbol>
    <symbol id="pencil" viewBox="0 0 512 512">
        <path
            d="M497.9 74.16l-60.09-60.1c-18.75-18.75-49.19-18.75-67.93 0L313.4 70.61l127.1 128l56.56-56.55C516.7 123.3 516.7 92.91 497.9 74.16zM31.04 352.1c-2.234 2.234-3.756 5.078-4.377 8.176l-26.34 131.7C-1.703 502.1 6.156 512 15.95 512c1.049 0 2.117-.1035 3.199-.3203l131.7-26.34c3.098-.6191 5.941-2.141 8.176-4.373l259.7-259.7l-128-128L31.04 352.1zM131.9 440.2l-75.14 15.03l15.03-75.15L96 355.9V416h60.12L131.9 440.2z">
        </path>
    </symbol>
    <symbol id="trash" viewBox="0 0 448 512">
        <path
            d="M53.21 467c1.562 24.84 23.02 45 47.9 45h245.8c24.88 0 46.33-20.16 47.9-45L416 128H32L53.21 467zM432 32H320l-11.58-23.16c-2.709-5.42-8.25-8.844-14.31-8.844H153.9c-6.061 0-11.6 3.424-14.31 8.844L128 32H16c-8.836 0-16 7.162-16 16V80c0 8.836 7.164 16 16 16h416c8.838 0 16-7.164 16-16V48C448 39.16 440.8 32 432 32z">
        </path>
    </symbol>
    <symbol id="user" viewBox="0 0 448 512">
        <path
            d="M224 256c70.7 0 128-57.31 128-128s-57.3-128-128-128C153.3 0 96 57.31 96 128S153.3 256 224 256zM274.7 304H173.3C77.61 304 0 381.6 0 477.3c0 19.14 15.52 34.67 34.66 34.67h378.7C432.5 512 448 496.5 448 477.3C448 381.6 370.4 304 274.7 304z">
        </path>
    </symbol>
    <symbol id="users" viewBox="0 0 640 512">
        <path d="M319.9 320c57.41 0 103.1-46.56 103.1-104c0-57.44-46.54-104-103.1-104c-57.41 0-103.1 46.56-103.1 104C215.9 273.4 262.5 320 319.9 320zM369.9 352H270.1C191.6 352 128 411.7 128 485.3C128 500.1 140.7 512 156.4 512h327.2C499.3 512 512 500.1 512 485.3C512 411.7 448.4 352 369.9 352zM512 160c44.18 0 80-35.82 80-80S556.2 0 512 0c-44.18 0-80 35.82-80 80S467.8 160 512 160zM183.9 216c0-5.449 .9824-10.63 1.609-15.91C174.6 194.1 162.6 192 149.9 192H88.08C39.44 192 0 233.8 0 285.3C0 295.6 7.887 304 17.62 304h199.5C196.7 280.2 183.9 249.7 183.9 216zM128 160c44.18 0 80-35.82 80-80S172.2 0 128 0C83.82 0 48 35.82 48 80S83.82 160 128 160zM551.9 192h-61.84c-12.8 0-24.88 3.037-35.86 8.24C454.8 205.5 455.8 210.6 455.8 216c0 33.71-12.78 64.21-33.16 88h199.7C632.1 304 640 295.6 640 285.3C640 233.8 600.6 192 551.9 192z"></path>
    </symbol>
</svg>
