<svg xmlns="http://www.w3.org/2000/svg" width="16" height="17" viewBox="0 0 16 17" fill="none">
<path d="M3.99967 3.83643C2.52701 3.83643 1.33301 5.03043 1.33301 6.50309V10.5031C1.33301 11.9758 2.52701 13.1698 3.99967 13.1698H8.66634C10.139 13.1698 11.333 11.9758 11.333 10.5031V10.1284L13.5203 12.3158C13.9403 12.7358 14.6663 12.4304 14.6663 11.8364V5.16976C14.6663 4.87309 14.4817 4.6411 14.2497 4.54443C14.0177 4.44843 13.7303 4.48043 13.5203 4.69043C13.247 4.96376 12.223 5.98777 11.333 6.87777V6.50309C11.333 5.03043 10.139 3.83643 8.66634 3.83643H3.99967Z" fill="white"/>
</svg>