<svg xmlns="http://www.w3.org/2000/svg" width="16" height="17" viewBox="0 0 16 17" fill="none">
<path d="M4.00944 3.18555C2.53671 3.18555 1.34277 4.37955 1.34277 5.85221V11.1855C1.34277 12.6582 2.53671 13.8522 4.00944 13.8522H12.0094C13.4822 13.8522 14.6761 12.6582 14.6761 11.1855V5.85221C14.6761 4.37955 13.4822 3.18555 12.0094 3.18555H4.00944ZM6.00944 5.85221C6.1801 5.85221 6.35844 5.90955 6.48864 6.03955C6.74897 6.30022 6.74897 6.73754 6.48864 6.99821L5.82197 7.66488C5.6969 7.78954 5.51964 7.85221 5.34277 7.85221H4.67611C4.30797 7.85221 4.00944 7.55355 4.00944 7.18555C4.00944 6.81755 4.30791 6.51888 4.67611 6.51888H5.05111L5.5303 6.03955C5.6605 5.90955 5.83884 5.85221 6.00944 5.85221ZM8.6761 6.51888H11.3428C11.711 6.51888 12.0094 6.81755 12.0094 7.18555C12.0094 7.55355 11.711 7.85221 11.3428 7.85221H8.6761C8.30797 7.85221 8.00944 7.55355 8.00944 7.18555C8.00944 6.81755 8.3079 6.51888 8.6761 6.51888ZM6.00944 8.51888C6.1801 8.51888 6.35844 8.57622 6.48864 8.70622C6.74897 8.96688 6.74897 9.40421 6.48864 9.66488L5.82197 10.3315C5.6969 10.4562 5.51964 10.5189 5.34277 10.5189H4.67611C4.30797 10.5189 4.00944 10.2202 4.00944 9.85221C4.00944 9.48421 4.30791 9.18555 4.67611 9.18555H5.05111L5.5303 8.70622C5.6605 8.57622 5.83884 8.51888 6.00944 8.51888ZM8.6761 9.18555H11.3428C11.711 9.18555 12.0094 9.48421 12.0094 9.85221C12.0094 10.2202 11.711 10.5189 11.3428 10.5189H8.6761C8.30797 10.5189 8.00944 10.2202 8.00944 9.85221C8.00944 9.48421 8.3079 9.18555 8.6761 9.18555Z" fill="white"/>
</svg>