<svg xmlns="http://www.w3.org/2000/svg" width="16" height="16" viewBox="0 0 16 16" fill="none">
<path d="M7.97637 1.30225C6.12357 1.30225 4.62143 2.79491 4.62143 4.63557V7.30224C4.62143 9.1429 6.12357 10.6356 7.97637 10.6356C9.8297 10.6356 11.3317 9.1429 11.3317 7.30224V4.63557C11.3317 2.79491 9.8297 1.30225 7.97637 1.30225ZM3.5307 9.2909C3.3651 9.24557 3.16557 9.25291 3.00437 9.34358C2.68204 9.52557 2.5699 9.94024 2.75277 10.2602C3.7059 11.9296 5.3433 13.0462 7.33503 13.2656L7.3317 13.9689C7.3317 14.3369 7.6277 14.6356 7.99837 14.6356C8.36903 14.6356 8.66503 14.3369 8.66503 13.9689L8.66237 13.2622C10.5657 13.0482 12.2777 11.9476 13.2377 10.3022C13.4237 9.98357 13.3277 9.5909 13.007 9.40624C12.6864 9.22157 12.2704 9.3169 12.0844 9.63557C11.249 11.0669 9.6937 11.9689 7.99837 11.9689C6.28763 11.9689 4.7493 11.0616 3.92017 9.60957C3.82877 9.44957 3.69623 9.3369 3.5307 9.2909Z" fill="white"/>
</svg>