<svg xmlns="http://www.w3.org/2000/svg" width="16" height="17" viewBox="0 0 16 17" fill="none">
<path d="M3.99414 2.49902C3.62614 2.49902 3.32747 2.79769 3.32747 3.16569C3.32747 3.53369 3.62614 3.83236 3.99414 3.83236H11.9941C12.3621 3.83236 12.6608 3.53369 12.6608 3.16569C12.6608 2.79769 12.3621 2.49902 11.9941 2.49902H3.99414ZM3.32747 5.16569C2.95947 5.16569 2.66081 5.46436 2.66081 5.83236C2.66081 6.20036 2.95947 6.49902 3.32747 6.49902H12.6608C13.0288 6.49902 13.3275 6.20036 13.3275 5.83236C13.3275 5.46436 13.0288 5.16569 12.6608 5.16569H3.32747ZM3.99414 7.83236C2.88947 7.83236 1.99414 8.72769 1.99414 9.83236V12.499C1.99414 13.6037 2.88947 14.499 3.99414 14.499H11.9941C13.0988 14.499 13.9941 13.6037 13.9941 12.499V9.83236C13.9941 8.72769 13.0988 7.83236 11.9941 7.83236H3.99414ZM7.61947 9.89502C7.78613 9.97835 8.78547 10.4784 8.9528 10.5617C9.44413 10.807 9.44413 11.5244 8.9528 11.7697L7.61947 12.4364C7.17613 12.6584 6.66081 12.3277 6.66081 11.8324V10.499C6.66081 10.0037 7.17613 9.67302 7.61947 9.89502Z" fill="white"/>
</svg>