<?xml version="1.0" encoding="UTF-8"?>
<svg id="Livello_7" data-name="Livello 7" xmlns="http://www.w3.org/2000/svg" viewBox="0 0 479.17 513.74">
  <defs>
    <style>
      .cls-1 {
        fill: #fff;
      }

      .cls-2 {
        fill: #FFCF00;
      }
    </style>
  </defs>
  <path class="cls-2" d="m170.67,438.57c-2.29,0-4.59-.04-6.89-.14-45.51-1.8-87.59-21.21-118.5-54.66S-1.66,306.84.14,261.33c1.8-45.5,21.21-87.59,54.66-118.5L209.39,0l231.42,250.45-154.6,142.85c-31.75,29.34-72.56,45.28-115.54,45.28h0ZM208.21,29.82L69.12,158.34c-29.31,27.08-46.32,63.96-47.89,103.83-1.58,39.87,12.47,77.97,39.55,107.28,29.4,31.82,69.54,47.94,109.78,47.94,36.28,0,72.65-13.1,101.33-39.6l139.09-128.52L208.21,29.82h0Z"/>
  <path class="cls-2" d="m203.04,161.02l79.91,3.16-6.31,159.83-79.91-3.16c-44.14-1.74-78.5-38.94-76.76-83.07,1.74-44.14,38.94-78.5,83.07-76.76h0Z"/>
  <path class="cls-1" d="m263.35,513.74l-.79-.63-168.11-134.1C19.86,319.51,7.58,210.42,67.08,135.82c59.5-74.59,168.6-86.87,243.19-27.37l168.9,134.73-215.81,270.56h-.01Zm-60.83-440.96c-50.29,0-100.14,22.02-133.87,64.31-58.8,73.72-46.67,181.54,27.05,240.35l167.32,133.47,213.29-267.4-167.32-133.47c-31.44-25.08-69.08-37.25-106.48-37.25h.01Zm33.39,284.81c-43.67,0-81.43-32.9-86.42-77.31l-9.73-86.48,172.98-19.47,9.73,86.48c5.37,47.69-29.06,90.85-76.75,96.22-3.29.37-6.56.55-9.8.55h-.01Zm-84.42-77.53c5.24,46.58,47.42,80.22,93.99,74.97,46.58-5.24,80.21-47.41,74.97-93.99l-9.51-84.47-168.96,19.02,9.51,84.47Z"/>
</svg>